<?xml version="1.0" encoding="utf-8"?>
<!-- Generator: Adobe Illustrator 26.5.0, SVG Export Plug-In . SVG Version: 6.00 Build 0)  -->
<svg version="1.1" id="Layer_1" xmlns="http://www.w3.org/2000/svg" xmlns:xlink="http://www.w3.org/1999/xlink" x="0px" y="0px"
	 viewBox="0 0 24 24" style="enable-background:new 0 0 24 24;" xml:space="preserve">
<g>
	<path d="M19,3H5C3.9,3,3,3.9,3,5v4c0,1.1,0.9,2,2,2h14c1.1,0,2-0.9,2-2V5C21,3.9,20.1,3,19,3z M19.5,8.7h-15V8h15V8.7z M19.5,6.1
		h-15V5.3h15V6.1z"/>
	<path d="M19,13H5c-1.1,0-2,0.9-2,2v4c0,1.1,0.9,2,2,2h14c1.1,0,2-0.9,2-2v-4C21,13.9,20.1,13,19,13z M19.5,18.7h-15v-0.8h15V18.7z
		 M19.5,16.1h-15v-0.8h15V16.1z"/>
</g>
</svg>
